<svg width="16" height="16" viewBox="0 0 16 16" fill="none" xmlns="http://www.w3.org/2000/svg">
<path d="M8.00061 4.28089C6.82088 4.28089 5.86719 3.32299 5.86719 2.1401C5.86719 0.958252 6.82088 0 8.00061 0C9.17754 0 10.1323 0.957901 10.1323 2.1401C10.1323 3.32264 9.17719 4.28089 8.00061 4.28089Z" fill="#2B2839"/>
<path d="M8.00096 10.1403C6.82123 10.1403 5.86719 9.18241 5.86719 7.99952C5.86719 6.81802 6.82088 5.85872 8.00061 5.85872C9.17754 5.85872 10.1323 6.81767 10.133 7.99952C10.1323 9.18312 9.17684 10.1403 8.00096 10.1403Z" fill="#2B2839"/>
<path d="M8.00097 16C6.82123 16 5.86719 15.0421 5.86719 13.8592C5.86719 12.6763 6.82088 11.7188 8.00061 11.7188C9.17754 11.7181 10.1323 12.6767 10.1323 13.8592C10.1323 15.0418 9.17684 16 8.00097 16Z" fill="#2B2839"/>
</svg>
