<svg width="24" height="24" viewBox="0 0 24 24" fill="none" xmlns="http://www.w3.org/2000/svg">
<path d="M5.99999 9.1429H4.28568C4.20831 9.1429 4.14135 9.17104 4.08481 9.22762C4.02824 9.28422 4 9.35121 4 9.42861V11.1429C4 11.2202 4.02824 11.2873 4.08481 11.3438C4.14138 11.4002 4.20831 11.4286 4.28568 11.4286H5.99999C6.07736 11.4286 6.14432 11.4003 6.20086 11.3438C6.25743 11.2872 6.28567 11.2202 6.28567 11.1429V9.42861C6.28567 9.35121 6.2574 9.28422 6.20086 9.22762C6.14432 9.17114 6.07736 9.1429 5.99999 9.1429Z" fill="#045DA7"/>
<path d="M5.99999 16.0001H4.28568C4.20831 16.0001 4.14135 16.0281 4.08481 16.0847C4.02824 16.1413 4 16.2082 4 16.2856V18C4 18.0773 4.02824 18.1442 4.08481 18.2008C4.14138 18.2575 4.20831 18.2857 4.28568 18.2857H5.99999C6.07736 18.2857 6.14432 18.2574 6.20086 18.2008C6.25743 18.1443 6.28567 18.0773 6.28567 18V16.2856C6.28567 16.2082 6.2574 16.1413 6.20086 16.0847C6.14432 16.0283 6.07736 16.0001 5.99999 16.0001Z" fill="#045DA7"/>
<path d="M5.99999 12.5713H4.28568C4.20831 12.5713 4.14135 12.5997 4.08481 12.6562C4.02827 12.7126 4 12.7798 4 12.8571V14.5713C4 14.6488 4.02824 14.7158 4.08481 14.7723C4.14138 14.8288 4.20831 14.857 4.28568 14.857H5.99999C6.07736 14.857 6.14432 14.8289 6.20086 14.7723C6.25743 14.7158 6.28567 14.6488 6.28567 14.5713V12.8571C6.28567 12.7798 6.2574 12.7128 6.20086 12.6562C6.14432 12.5997 6.07736 12.5713 5.99999 12.5713Z" fill="#045DA7"/>
<path d="M5.99999 5.71426H4.28568C4.20831 5.71426 4.14135 5.7425 4.08481 5.79908C4.02827 5.85565 4 5.9226 4 5.99997V7.71426C4 7.79166 4.02824 7.85858 4.08481 7.91515C4.14138 7.97173 4.20831 7.99996 4.28568 7.99996H5.99999C6.07736 7.99996 6.14432 7.97182 6.20086 7.91515C6.25743 7.85858 6.28567 7.79166 6.28567 7.71426V5.99997C6.28567 5.92257 6.2574 5.85565 6.20086 5.79908C6.14432 5.74266 6.07736 5.71426 5.99999 5.71426Z" fill="#045DA7"/>
<path d="M19.7143 16.0001H7.71433C7.63696 16.0001 7.57 16.0281 7.51346 16.0847C7.45689 16.1413 7.42865 16.2082 7.42865 16.2857V18.0001C7.42865 18.0773 7.45689 18.1442 7.51346 18.2008C7.57003 18.2575 7.63686 18.2857 7.71433 18.2857H19.7143C19.7918 18.2857 19.8586 18.2575 19.9153 18.2008C19.9719 18.1442 20 18.0773 20 18.0001V16.2857C20 16.2082 19.9718 16.1413 19.9153 16.0847C19.8586 16.0283 19.7917 16.0001 19.7143 16.0001Z" fill="#045DA7"/>
<path d="M19.7143 12.5713H7.71433C7.63696 12.5713 7.57 12.5997 7.51346 12.6562C7.45692 12.7126 7.42865 12.7798 7.42865 12.8571V14.5713C7.42865 14.6488 7.45689 14.7158 7.51346 14.7723C7.57003 14.8288 7.63686 14.857 7.71433 14.857H19.7143C19.7918 14.857 19.8586 14.8289 19.9153 14.7723C19.9719 14.7158 20 14.6488 20 14.5713V12.8571C20 12.7798 19.9718 12.7128 19.9153 12.6562C19.8586 12.5997 19.7917 12.5713 19.7143 12.5713Z" fill="#045DA7"/>
<path d="M19.9153 5.79908C19.8586 5.74263 19.7918 5.71426 19.7143 5.71426H7.71433C7.63696 5.71426 7.57 5.7425 7.51346 5.79908C7.45692 5.85565 7.42865 5.92257 7.42865 5.99997V7.71426C7.42865 7.79166 7.45689 7.85858 7.51346 7.91515C7.57003 7.97173 7.63686 7.99996 7.71433 7.99996H19.7143C19.7918 7.99996 19.8586 7.97182 19.9153 7.91515C19.9719 7.85858 20 7.79166 20 7.71426V5.99997C20 5.9226 19.9718 5.85565 19.9153 5.79908Z" fill="#045DA7"/>
<path d="M19.7143 9.1429H7.71433C7.63696 9.1429 7.57 9.17104 7.51346 9.22762C7.45689 9.28422 7.42865 9.35121 7.42865 9.42861V11.1429C7.42865 11.2202 7.45689 11.2872 7.51346 11.3438C7.57003 11.4002 7.63686 11.4286 7.71433 11.4286H19.7143C19.7918 11.4286 19.8586 11.4003 19.9153 11.3438C19.9719 11.2872 20 11.2202 20 11.1429V9.42861C20 9.35121 19.9718 9.28422 19.9153 9.22762C19.8586 9.17114 19.7917 9.1429 19.7143 9.1429Z" fill="#045DA7"/>
</svg>
